<svg width="1512" height="982" viewBox="0 0 1512 982" fill="none" xmlns="http://www.w3.org/2000/svg">
<g clip-path="url(#clip0_32_2563)">
<rect width="1512" height="982" fill="white"/>
<rect width="1515" height="982" fill="white"/>
<g filter="url(#filter0_d_32_2563)">
<path d="M249.5 126C189 128.5 51.0001 62.0001 3.00008 83.0001C-44.9999 104 3.00008 978 3.00008 978H1515V135C1515 135 1421.5 83.0001 1370 83.0001C1318.5 83.0001 1200.5 115 1163.5 115.5C1126.5 116 1094.5 83.0001 1029 83.0001C963.5 83.0001 855 115.5 800.5 115.5C746 115.5 628 83.0001 579.5 83.0001C531 83.0001 310 123.5 249.5 126Z" fill="#F2E8D9"/>
</g>
<g filter="url(#filter1_d_32_2563)">
<path d="M179 370C54 370 7 391.5 7 391.5L-1.5 976H1504.5C1504.5 976 1515 410 1515 385.5C1515 361 1440.5 426 1384.5 426C1328.5 426 1200.5 370 1140 370C1079.5 370 985 426 944 426C903 426 879 370 834 370C789 370 728.5 426 679 426C629.5 426 623 370 556.5 370C490 370 468 426 392.5 426C317 426 304 370 179 370Z" fill="#E9D9BF"/>
</g>
<g filter="url(#filter2_d_32_2563)">
<path d="M267.5 558C131.505 558 0 708.079 0 708.079V982H1512V668.169C1512 668.169 1418.3 612.721 1335 610C1251.7 607.279 1215.31 761.709 1129 773.5C1042.69 785.291 1028.74 635.517 935.403 638.238C842.063 640.959 819.882 750 715 750C610.118 750 623.267 669.076 573.586 668.169C523.906 667.262 529.792 773.5 449.5 773.5C369.208 773.5 403.495 558 267.5 558Z" fill="#CBAC8B"/>
</g>
<circle cx="88.178" cy="797.941" r="42.178" fill="#745130"/>
<path d="M104.915 771.831C104.915 771.831 117.745 776.383 118.28 795.099C118.814 813.815 110.796 817.356 110.796 817.356" stroke="#9C7857" stroke-width="5.35593" stroke-linecap="round"/>
<circle cx="96.212" cy="827.398" r="3.34746" fill="#9C7857"/>
<circle cx="100.178" cy="901.178" r="42.178" transform="rotate(64.3721 100.178 901.178)" fill="#745130"/>
<path d="M130.959 904.975C130.959 904.975 132.403 918.512 115.76 927.089C99.1161 935.666 92.4554 929.968 92.4554 929.968" stroke="#9C7857" stroke-width="5.35593" stroke-linecap="round"/>
<circle cx="77.0933" cy="921.163" r="3.34746" transform="rotate(64.3721 77.0933 921.163)" fill="#9C7857"/>
<circle cx="206.178" cy="822.941" r="42.178" transform="rotate(-43.6341 206.178 822.941)" fill="#745130"/>
<path d="M200.275 792.494C200.275 792.494 212.702 786.935 226.004 800.113C239.306 813.29 235.945 821.386 235.945 821.386" stroke="#9C7857" stroke-width="5.35593" stroke-linecap="round"/>
<circle cx="232.32" cy="838.717" r="3.34746" transform="rotate(-43.6341 232.32 838.717)" fill="#9C7857"/>
<circle cx="398.178" cy="841.941" r="42.178" fill="#745130"/>
<path d="M414.915 815.831C414.915 815.831 427.745 820.383 428.28 839.099C428.814 857.815 420.796 861.356 420.796 861.356" stroke="#9C7857" stroke-width="5.35593" stroke-linecap="round"/>
<circle cx="406.212" cy="871.398" r="3.34746" fill="#9C7857"/>
<g filter="url(#filter3_d_32_2563)">
<circle cx="1418.18" cy="920.941" r="42.178" transform="rotate(15.0591 1418.18 920.941)" fill="#745130"/>
<path d="M1441.12 900.076C1441.12 900.076 1452.33 907.805 1447.98 926.017C1443.64 944.23 1434.97 945.565 1434.97 945.565" stroke="#9C7857" stroke-width="5.35593" stroke-linecap="round"/>
<circle cx="1418.28" cy="951.474" r="3.34746" transform="rotate(15.0591 1418.28 951.474)" fill="#9C7857"/>
</g>
<g filter="url(#filter4_d_32_2563)">
<circle cx="1448.18" cy="796.94" r="42.178" transform="rotate(-17.071 1448.18 796.94)" fill="#745130"/>
</g>
<path d="M1456.51 767.067C1456.51 767.067 1470.11 767.653 1476.12 785.388C1482.12 803.122 1475.5 808.861 1475.5 808.861" stroke="#9C7857" stroke-width="5.35593" stroke-linecap="round"/>
<circle cx="1464.51" cy="822.742" r="3.34746" transform="rotate(-17.071 1464.51 822.742)" fill="#9C7857"/>
<circle cx="1268.18" cy="914.941" r="42.178" transform="rotate(-51.7453 1268.18 914.941)" fill="#745130"/>
<path d="M1258.04 885.631C1258.04 885.631 1269.56 878.375 1284.58 889.544C1299.61 900.712 1297.43 909.201 1297.43 909.201" stroke="#9C7857" stroke-width="5.35593" stroke-linecap="round"/>
<circle cx="1296.28" cy="926.871" r="3.34746" transform="rotate(-51.7453 1296.28 926.871)" fill="#9C7857"/>
<circle cx="1076.18" cy="907.941" r="42.178" fill="#745130"/>
<path d="M1092.92 881.831C1092.92 881.831 1105.74 886.383 1106.28 905.099C1106.81 923.815 1098.8 927.356 1098.8 927.356" stroke="#9C7857" stroke-width="5.35593" stroke-linecap="round"/>
<circle cx="1084.21" cy="937.398" r="3.34746" fill="#9C7857"/>
<circle cx="1334.18" cy="823.941" r="42.178" transform="rotate(-18.5587 1334.18 823.941)" fill="#745130"/>
<path d="M1341.73 793.861C1341.73 793.861 1355.35 794.094 1361.81 811.666C1368.27 829.239 1361.8 835.148 1361.8 835.148" stroke="#9C7857" stroke-width="5.35593" stroke-linecap="round"/>
<circle cx="1351.17" cy="849.31" r="3.34746" transform="rotate(-18.5587 1351.17 849.31)" fill="#9C7857"/>
<circle cx="1184.18" cy="811.941" r="42.178" transform="rotate(-70.1515 1184.18 811.941)" fill="#745130"/>
<path d="M1165.3 787.333C1165.3 787.333 1173.94 776.811 1191.73 782.663C1209.51 788.515 1210.12 797.259 1210.12 797.259" stroke="#9C7857" stroke-opacity="0.7" stroke-width="5.35593" stroke-linecap="round"/>
<circle cx="1214.61" cy="814.386" r="3.34746" transform="rotate(-70.1515 1214.61 814.386)" fill="#9C7857" fill-opacity="0.7"/>
<circle cx="953.178" cy="842.941" r="42.178" transform="rotate(-49.1244 953.178 842.941)" fill="#745130"/>
<path d="M944.388 813.198C944.388 813.198 956.226 806.476 970.728 818.32C985.23 830.164 982.66 838.544 982.66 838.544" stroke="#9C7857" stroke-width="5.35593" stroke-linecap="round"/>
<circle cx="980.709" cy="856.144" r="3.34746" transform="rotate(-49.1244 980.709 856.144)" fill="#9C7857"/>
<circle cx="841.178" cy="917.94" r="42.178" transform="rotate(-105.519 841.178 917.94)" fill="#745130"/>
<path d="M811.542 908.799C811.542 908.799 812.495 895.219 830.386 889.697C848.277 884.174 853.834 890.953 853.834 890.953" stroke="#9C7857" stroke-width="5.35593" stroke-linecap="round"/>
<circle cx="867.412" cy="902.318" r="3.34746" transform="rotate(-105.519 867.412 902.318)" fill="#9C7857"/>
<circle cx="841.178" cy="823.94" r="42.178" transform="rotate(-33.0199 841.178 823.94)" fill="#745130"/>
<path d="M840.984 792.927C840.984 792.927 854.222 789.753 864.869 805.155C875.516 820.556 870.723 827.895 870.723 827.895" stroke="#9C7857" stroke-width="5.35593" stroke-linecap="round"/>
<circle cx="863.967" cy="844.262" r="3.34746" transform="rotate(-33.0199 863.967 844.262)" fill="#9C7857"/>
<circle cx="694.178" cy="911.941" r="42.178" fill="#745130"/>
<path d="M710.915 885.831C710.915 885.831 723.745 890.383 724.28 909.099C724.814 927.815 716.796 931.356 716.796 931.356" stroke="#9C7857" stroke-width="5.35593" stroke-linecap="round"/>
<circle cx="702.212" cy="941.398" r="3.34746" fill="#9C7857"/>
<circle cx="576.178" cy="923.941" r="42.178" transform="rotate(124.017 576.178 923.941)" fill="#745130"/>
<path d="M588.457 952.421C588.457 952.421 577.506 960.508 561.693 950.481C545.881 940.453 547.432 931.826 547.432 931.826" stroke="#9C7857" stroke-width="5.35593" stroke-linecap="round"/>
<circle cx="547.267" cy="914.12" r="3.34746" transform="rotate(124.017 547.267 914.12)" fill="#9C7857"/>
<circle cx="457.178" cy="917.941" r="42.178" transform="rotate(-40.744 457.178 917.941)" fill="#745130"/>
<path d="M452.817 887.235C452.817 887.235 465.509 882.31 478.129 896.141C490.75 909.972 486.986 917.888 486.986 917.888" stroke="#9C7857" stroke-width="5.35593" stroke-linecap="round"/>
<circle cx="482.491" cy="935.015" r="3.34746" transform="rotate(-40.744 482.491 935.015)" fill="#9C7857"/>
<circle cx="307.178" cy="917.941" r="42.178" transform="rotate(-38.299 307.178 917.941)" fill="#745130"/>
<path d="M304.131 887.077C304.131 887.077 317.021 882.698 329.04 897.055C341.059 911.412 336.961 919.16 336.961 919.16" stroke="#9C7857" stroke-width="5.35593" stroke-linecap="round"/>
<circle cx="331.74" cy="936.08" r="3.34746" transform="rotate(-38.299 331.74 936.08)" fill="#9C7857"/>
</g>
<defs>
<filter id="filter0_d_32_2563" x="-32.3333" y="68.8936" width="1561.33" height="927.107" filterUnits="userSpaceOnUse" color-interpolation-filters="sRGB">
<feFlood flood-opacity="0" result="BackgroundImageFix"/>
<feColorMatrix in="SourceAlpha" type="matrix" values="0 0 0 0 0 0 0 0 0 0 0 0 0 0 0 0 0 0 127 0" result="hardAlpha"/>
<feOffset dy="4"/>
<feGaussianBlur stdDeviation="7"/>
<feComposite in2="hardAlpha" operator="out"/>
<feColorMatrix type="matrix" values="0 0 0 0 0.905882 0 0 0 0 0.823529 0 0 0 0 0.729412 0 0 0 1 0"/>
<feBlend mode="normal" in2="BackgroundImageFix" result="effect1_dropShadow_32_2563"/>
<feBlend mode="normal" in="SourceGraphic" in2="effect1_dropShadow_32_2563" result="shape"/>
</filter>
<filter id="filter1_d_32_2563" x="-15.5" y="360" width="1544.5" height="634" filterUnits="userSpaceOnUse" color-interpolation-filters="sRGB">
<feFlood flood-opacity="0" result="BackgroundImageFix"/>
<feColorMatrix in="SourceAlpha" type="matrix" values="0 0 0 0 0 0 0 0 0 0 0 0 0 0 0 0 0 0 127 0" result="hardAlpha"/>
<feOffset dy="4"/>
<feGaussianBlur stdDeviation="7"/>
<feComposite in2="hardAlpha" operator="out"/>
<feColorMatrix type="matrix" values="0 0 0 0 0.807843 0 0 0 0 0.690196 0 0 0 0 0.564706 0 0 0 1 0"/>
<feBlend mode="normal" in2="BackgroundImageFix" result="effect1_dropShadow_32_2563"/>
<feBlend mode="normal" in="SourceGraphic" in2="effect1_dropShadow_32_2563" result="shape"/>
</filter>
<filter id="filter2_d_32_2563" x="-14" y="548" width="1540" height="452" filterUnits="userSpaceOnUse" color-interpolation-filters="sRGB">
<feFlood flood-opacity="0" result="BackgroundImageFix"/>
<feColorMatrix in="SourceAlpha" type="matrix" values="0 0 0 0 0 0 0 0 0 0 0 0 0 0 0 0 0 0 127 0" result="hardAlpha"/>
<feOffset dy="4"/>
<feGaussianBlur stdDeviation="7"/>
<feComposite in2="hardAlpha" operator="out"/>
<feColorMatrix type="matrix" values="0 0 0 0 0.611765 0 0 0 0 0.470588 0 0 0 0 0.341176 0 0 0 0.8 0"/>
<feBlend mode="normal" in2="BackgroundImageFix" result="effect1_dropShadow_32_2563"/>
<feBlend mode="normal" in="SourceGraphic" in2="effect1_dropShadow_32_2563" result="shape"/>
</filter>
<filter id="filter3_d_32_2563" x="1371.99" y="878.752" width="92.377" height="92.377" filterUnits="userSpaceOnUse" color-interpolation-filters="sRGB">
<feFlood flood-opacity="0" result="BackgroundImageFix"/>
<feColorMatrix in="SourceAlpha" type="matrix" values="0 0 0 0 0 0 0 0 0 0 0 0 0 0 0 0 0 0 127 0" result="hardAlpha"/>
<feOffset dy="4"/>
<feGaussianBlur stdDeviation="2"/>
<feComposite in2="hardAlpha" operator="out"/>
<feColorMatrix type="matrix" values="0 0 0 0 0 0 0 0 0 0 0 0 0 0 0 0 0 0 0.25 0"/>
<feBlend mode="normal" in2="BackgroundImageFix" result="effect1_dropShadow_32_2563"/>
<feBlend mode="normal" in="SourceGraphic" in2="effect1_dropShadow_32_2563" result="shape"/>
</filter>
<filter id="filter4_d_32_2563" x="1401.99" y="754.751" width="92.3784" height="92.3782" filterUnits="userSpaceOnUse" color-interpolation-filters="sRGB">
<feFlood flood-opacity="0" result="BackgroundImageFix"/>
<feColorMatrix in="SourceAlpha" type="matrix" values="0 0 0 0 0 0 0 0 0 0 0 0 0 0 0 0 0 0 127 0" result="hardAlpha"/>
<feOffset dy="4"/>
<feGaussianBlur stdDeviation="2"/>
<feComposite in2="hardAlpha" operator="out"/>
<feColorMatrix type="matrix" values="0 0 0 0 0 0 0 0 0 0 0 0 0 0 0 0 0 0 0.25 0"/>
<feBlend mode="normal" in2="BackgroundImageFix" result="effect1_dropShadow_32_2563"/>
<feBlend mode="normal" in="SourceGraphic" in2="effect1_dropShadow_32_2563" result="shape"/>
</filter>
<clipPath id="clip0_32_2563">
<rect width="1512" height="982" fill="white"/>
</clipPath>
</defs>
</svg>
