<svg width="430" height="932" viewBox="0 0 430 932" fill="none" xmlns="http://www.w3.org/2000/svg">
<g clip-path="url(#clip0_40_2434)">
<rect width="430" height="932" fill="white"/>
<circle cx="30.0487" cy="391.098" r="5" transform="rotate(-0.560523 30.0487 391.098)" fill="#BDBDBD"/>
<circle cx="30.4891" cy="436.095" r="5" transform="rotate(-0.560523 30.4891 436.095)" fill="#F2F2F2"/>
<circle cx="30.929" cy="481.093" r="5" transform="rotate(-0.560523 30.929 481.093)" fill="#F2F2F2"/>
<circle cx="31.3695" cy="526.091" r="5" transform="rotate(-0.560523 31.3695 526.091)" fill="#F2F2F2"/>
<circle cx="31.8094" cy="571.089" r="5" transform="rotate(-0.560523 31.8094 571.089)" fill="#F2F2F2"/>
<circle cx="31.8094" cy="571.089" r="5" transform="rotate(-0.560523 31.8094 571.089)" fill="#F2F2F2"/>
<g filter="url(#filter0_d_40_2434)">
<path d="M249.5 126C189 128.5 51.0003 62.0001 3.00033 83.0001C-44.9997 104 3.00033 978 3.00033 978H1515V135C1515 135 1421.5 83.0001 1370 83.0001C1318.5 83.0001 1200.5 115 1163.5 115.5C1126.5 116 1094.5 83.0001 1029 83.0001C963.5 83.0001 855.001 115.5 800.501 115.5C746.001 115.5 628.001 83.0001 579.501 83.0001C531.001 83.0001 310 123.5 249.5 126Z" fill="#F2E8D9"/>
</g>
<g filter="url(#filter1_d_40_2434)">
<path d="M181 370C56 370 9 391.5 9 391.5L0.5 976H1506.5C1506.5 976 1517 410 1517 385.5C1517 361 1442.5 426 1386.5 426C1330.5 426 1202.5 370 1142 370C1081.5 370 987 426 946 426C905 426 881 370 836 370C791 370 730.5 426 681 426C631.5 426 625 370 558.5 370C492 370 470 426 394.5 426C319 426 306 370 181 370Z" fill="#E9D9BF"/>
</g>
<g filter="url(#filter2_d_40_2434)">
<path d="M267.5 558C131.505 558 0 708.079 0 708.079V982H1512V668.169C1512 668.169 1418.3 612.721 1335 610C1251.7 607.279 1215.31 761.709 1129 773.5C1042.69 785.291 1028.74 635.517 935.403 638.238C842.063 640.959 819.882 750 715 750C610.118 750 623.267 669.076 573.586 668.169C523.906 667.262 529.792 773.5 449.5 773.5C369.208 773.5 403.495 558 267.5 558Z" fill="#CBAC8B"/>
</g>
<circle cx="88.178" cy="797.941" r="42.178" fill="#745130"/>
<path d="M104.915 771.831C104.915 771.831 117.745 776.383 118.279 795.099C118.814 813.815 110.795 817.356 110.795 817.356" stroke="#9C7857" stroke-width="5.35593" stroke-linecap="round"/>
<circle cx="96.2117" cy="827.398" r="3.34746" fill="#9C7857"/>
<circle cx="100.178" cy="901.178" r="42.178" transform="rotate(64.3721 100.178 901.178)" fill="#745130"/>
<path d="M130.959 904.975C130.959 904.975 132.403 918.512 115.76 927.089C99.1163 935.666 92.4556 929.968 92.4556 929.968" stroke="#9C7857" stroke-width="5.35593" stroke-linecap="round"/>
<circle cx="77.0933" cy="921.163" r="3.34746" transform="rotate(64.3721 77.0933 921.163)" fill="#9C7857"/>
<circle cx="206.178" cy="822.941" r="42.178" transform="rotate(-43.6341 206.178 822.941)" fill="#745130"/>
<path d="M200.274 792.494C200.274 792.494 212.702 786.935 226.003 800.113C239.305 813.29 235.945 821.386 235.945 821.386" stroke="#9C7857" stroke-width="5.35593" stroke-linecap="round"/>
<circle cx="232.32" cy="838.717" r="3.34746" transform="rotate(-43.6341 232.32 838.717)" fill="#9C7857"/>
<circle cx="398.178" cy="841.941" r="42.178" fill="#745130"/>
<path d="M414.915 815.831C414.915 815.831 427.745 820.383 428.279 839.099C428.814 857.815 420.795 861.356 420.795 861.356" stroke="#9C7857" stroke-width="5.35593" stroke-linecap="round"/>
<circle cx="406.212" cy="871.398" r="3.34746" fill="#9C7857"/>
<circle cx="457.178" cy="917.941" r="42.178" transform="rotate(-40.744 457.178 917.941)" fill="#745130"/>
<circle cx="307.178" cy="917.941" r="42.178" transform="rotate(-38.299 307.178 917.941)" fill="#745130"/>
<path d="M304.131 887.077C304.131 887.077 317.021 882.698 329.04 897.055C341.059 911.412 336.961 919.16 336.961 919.16" stroke="#9C7857" stroke-width="5.35593" stroke-linecap="round"/>
<circle cx="331.739" cy="936.08" r="3.34746" transform="rotate(-38.299 331.739 936.08)" fill="#9C7857"/>
</g>
<defs>
<filter id="filter0_d_40_2434" x="-32.333" y="68.8936" width="1561.33" height="927.107" filterUnits="userSpaceOnUse" color-interpolation-filters="sRGB">
<feFlood flood-opacity="0" result="BackgroundImageFix"/>
<feColorMatrix in="SourceAlpha" type="matrix" values="0 0 0 0 0 0 0 0 0 0 0 0 0 0 0 0 0 0 127 0" result="hardAlpha"/>
<feOffset dy="4"/>
<feGaussianBlur stdDeviation="7"/>
<feComposite in2="hardAlpha" operator="out"/>
<feColorMatrix type="matrix" values="0 0 0 0 0.905882 0 0 0 0 0.823529 0 0 0 0 0.729412 0 0 0 1 0"/>
<feBlend mode="normal" in2="BackgroundImageFix" result="effect1_dropShadow_40_2434"/>
<feBlend mode="normal" in="SourceGraphic" in2="effect1_dropShadow_40_2434" result="shape"/>
</filter>
<filter id="filter1_d_40_2434" x="-13.5" y="360" width="1544.5" height="634" filterUnits="userSpaceOnUse" color-interpolation-filters="sRGB">
<feFlood flood-opacity="0" result="BackgroundImageFix"/>
<feColorMatrix in="SourceAlpha" type="matrix" values="0 0 0 0 0 0 0 0 0 0 0 0 0 0 0 0 0 0 127 0" result="hardAlpha"/>
<feOffset dy="4"/>
<feGaussianBlur stdDeviation="7"/>
<feComposite in2="hardAlpha" operator="out"/>
<feColorMatrix type="matrix" values="0 0 0 0 0.807843 0 0 0 0 0.690196 0 0 0 0 0.564706 0 0 0 1 0"/>
<feBlend mode="normal" in2="BackgroundImageFix" result="effect1_dropShadow_40_2434"/>
<feBlend mode="normal" in="SourceGraphic" in2="effect1_dropShadow_40_2434" result="shape"/>
</filter>
<filter id="filter2_d_40_2434" x="-14" y="548" width="1540" height="452" filterUnits="userSpaceOnUse" color-interpolation-filters="sRGB">
<feFlood flood-opacity="0" result="BackgroundImageFix"/>
<feColorMatrix in="SourceAlpha" type="matrix" values="0 0 0 0 0 0 0 0 0 0 0 0 0 0 0 0 0 0 127 0" result="hardAlpha"/>
<feOffset dy="4"/>
<feGaussianBlur stdDeviation="7"/>
<feComposite in2="hardAlpha" operator="out"/>
<feColorMatrix type="matrix" values="0 0 0 0 0.611765 0 0 0 0 0.470588 0 0 0 0 0.341176 0 0 0 0.8 0"/>
<feBlend mode="normal" in2="BackgroundImageFix" result="effect1_dropShadow_40_2434"/>
<feBlend mode="normal" in="SourceGraphic" in2="effect1_dropShadow_40_2434" result="shape"/>
</filter>
<clipPath id="clip0_40_2434">
<rect width="430" height="932" fill="white"/>
</clipPath>
</defs>
</svg>
