<svg width="2000" height="982" viewBox="0 0 2000 982" fill="none" xmlns="http://www.w3.org/2000/svg">
<g clip-path="url(#clip0_32_2389)">
<rect width="2000" height="982" fill="white"/>
<rect width="1515" height="982" fill="white"/>
<g filter="url(#filter0_d_32_2389)">
<path d="M334.492 126.101C254.869 128.601 73.2487 62.1086 10.0765 83.1061C-53.0957 104.104 10.0765 978 10.0765 978H2000V135.1C2000 135.1 1876.95 83.1061 1809.17 83.1061C1741.39 83.1061 1586.09 115.102 1537.4 115.602C1488.7 116.102 1446.59 83.1061 1360.38 83.1061C1274.18 83.1061 1131.38 115.602 1059.66 115.602C987.93 115.602 832.632 83.1061 768.801 83.1061C704.971 83.1061 414.115 123.601 334.492 126.101Z" fill="#F2E8D9"/>
</g>
<g filter="url(#filter1_d_32_2389)">
<path d="M237.167 370C72.2315 370 10.2156 391.5 10.2156 391.5L-1 976H1986.15C1986.15 976 2000 410 2000 385.5C2000 361 1901.7 426 1827.81 426C1753.92 426 1585.02 370 1505.19 370C1425.36 370 1300.67 426 1246.57 426C1192.47 426 1160.81 370 1101.43 370C1042.05 370 962.225 426 896.91 426C831.595 426 823.019 370 735.273 370C647.527 370 618.499 426 518.877 426C419.256 426 402.103 370 237.167 370Z" fill="#E9D9BF"/>
</g>
</g>
<defs>
<filter id="filter0_d_32_2389" x="-32" y="69" width="2046" height="927" filterUnits="userSpaceOnUse" color-interpolation-filters="sRGB">
<feFlood flood-opacity="0" result="BackgroundImageFix"/>
<feColorMatrix in="SourceAlpha" type="matrix" values="0 0 0 0 0 0 0 0 0 0 0 0 0 0 0 0 0 0 127 0" result="hardAlpha"/>
<feOffset dy="4"/>
<feGaussianBlur stdDeviation="7"/>
<feComposite in2="hardAlpha" operator="out"/>
<feColorMatrix type="matrix" values="0 0 0 0 0.905882 0 0 0 0 0.823529 0 0 0 0 0.729412 0 0 0 1 0"/>
<feBlend mode="normal" in2="BackgroundImageFix" result="effect1_dropShadow_32_2389"/>
<feBlend mode="normal" in="SourceGraphic" in2="effect1_dropShadow_32_2389" result="shape"/>
</filter>
<filter id="filter1_d_32_2389" x="-15" y="360" width="2029" height="634" filterUnits="userSpaceOnUse" color-interpolation-filters="sRGB">
<feFlood flood-opacity="0" result="BackgroundImageFix"/>
<feColorMatrix in="SourceAlpha" type="matrix" values="0 0 0 0 0 0 0 0 0 0 0 0 0 0 0 0 0 0 127 0" result="hardAlpha"/>
<feOffset dy="4"/>
<feGaussianBlur stdDeviation="7"/>
<feComposite in2="hardAlpha" operator="out"/>
<feColorMatrix type="matrix" values="0 0 0 0 0.807843 0 0 0 0 0.690196 0 0 0 0 0.564706 0 0 0 1 0"/>
<feBlend mode="normal" in2="BackgroundImageFix" result="effect1_dropShadow_32_2389"/>
<feBlend mode="normal" in="SourceGraphic" in2="effect1_dropShadow_32_2389" result="shape"/>
</filter>
<clipPath id="clip0_32_2389">
<rect width="2000" height="982" fill="white"/>
</clipPath>
</defs>
</svg>
