<svg width="430" height="932" viewBox="0 0 430 932" fill="none" xmlns="http://www.w3.org/2000/svg">
<g clip-path="url(#clip0_40_2434)">
<rect width="430" height="932" fill="white"/>
<circle cx="30.0487" cy="391.098" r="5" transform="rotate(-0.560523 30.0487 391.098)" fill="#BDBDBD"/>
<circle cx="30.4891" cy="436.095" r="5" transform="rotate(-0.560523 30.4891 436.095)" fill="#F2F2F2"/>
<circle cx="30.929" cy="481.093" r="5" transform="rotate(-0.560523 30.929 481.093)" fill="#F2F2F2"/>
<circle cx="31.3695" cy="526.091" r="5" transform="rotate(-0.560523 31.3695 526.091)" fill="#F2F2F2"/>
<circle cx="31.8094" cy="571.089" r="5" transform="rotate(-0.560523 31.8094 571.089)" fill="#F2F2F2"/>
<circle cx="31.8094" cy="571.089" r="5" transform="rotate(-0.560523 31.8094 571.089)" fill="#F2F2F2"/>
<g filter="url(#filter0_d_40_2434)">
<path d="M249.5 126C189 128.5 51.0003 62.0001 3.00033 83.0001C-44.9997 104 3.00033 978 3.00033 978H1515V135C1515 135 1421.5 83.0001 1370 83.0001C1318.5 83.0001 1200.5 115 1163.5 115.5C1126.5 116 1094.5 83.0001 1029 83.0001C963.5 83.0001 855.001 115.5 800.501 115.5C746.001 115.5 628.001 83.0001 579.501 83.0001C531.001 83.0001 310 123.5 249.5 126Z" fill="#F2E8D9"/>
</g>
</g>
<defs>
<filter id="filter0_d_40_2434" x="-32.333" y="68.8936" width="1561.33" height="927.107" filterUnits="userSpaceOnUse" color-interpolation-filters="sRGB">
<feFlood flood-opacity="0" result="BackgroundImageFix"/>
<feColorMatrix in="SourceAlpha" type="matrix" values="0 0 0 0 0 0 0 0 0 0 0 0 0 0 0 0 0 0 127 0" result="hardAlpha"/>
<feOffset dy="4"/>
<feGaussianBlur stdDeviation="7"/>
<feComposite in2="hardAlpha" operator="out"/>
<feColorMatrix type="matrix" values="0 0 0 0 0.905882 0 0 0 0 0.823529 0 0 0 0 0.729412 0 0 0 1 0"/>
<feBlend mode="normal" in2="BackgroundImageFix" result="effect1_dropShadow_40_2434"/>
<feBlend mode="normal" in="SourceGraphic" in2="effect1_dropShadow_40_2434" result="shape"/>
</filter>
<clipPath id="clip0_40_2434">
<rect width="430" height="932" fill="white"/>
</clipPath>
</defs>
</svg>
